<?xml version="1.0" encoding="utf-8"?>
<!-- Generator: Adobe Illustrator 22.1.0, SVG Export Plug-In . SVG Version: 6.00 Build 0)  -->
<svg version="1.1" id="Layer_1" xmlns="http://www.w3.org/2000/svg" xmlns:xlink="http://www.w3.org/1999/xlink" x="0px" y="0px"
	 viewBox="0 0 72 36" style="enable-background:new 0 0 72 36;" xml:space="preserve">
<style type="text/css">
	.st0{fill:none;}
</style>
<g>
	<path d="M2.5,8.8v-1v-1v-1v-1h1h1h1h1V5v0.2v0.2v0.2H5.7H5H4.2H3.4v0.2V6v0.2v0.2h0.4h0.4h0.4h0.4v0.2v0.2v0.2v0.2H4.8H4.3H3.9H3.4
		v0.2v0.2v0.2V8h0.8H5h0.8h0.8v0.2v0.2v0.2v0.2h-1h-1h-1H2.5L2.5,8.8z"/>
	<path d="M7.5,8.8V8V7.2V6.4V5.6h0.1h0.1h0.1h0.1l0.7,0.5l0.7,0.5l0.7,0.5l0.7,0.5V7.2V6.6V6.1V5.6h0.2h0.2h0.2h0.2v0.8v0.8V8v0.8
		h-0.1h-0.1h-0.1h-0.1l-0.7-0.5L9.6,7.7L8.9,7.1L8.2,6.6v0.5v0.5v0.5v0.5H8.1H7.9H7.7H7.5L7.5,8.8z"/>
	<path d="M12.5,8.8V8V7.2V6.4V5.6H13h0.5h0.5h0.5l0.4,0l0.4,0.1l0.3,0.1L16.1,6l0.2,0.2l0.2,0.3l0.1,0.3l0,0.4l0,0.4l-0.1,0.3
		l-0.2,0.3L16,8.4l-0.3,0.2l-0.4,0.1l-0.4,0.1l-0.5,0H14h-0.5H13H12.5L12.5,8.8z M13.3,8.2h0.2h0.2H14h0.2l0.4,0l0.3,0L15.2,8
		l0.2-0.1l0.1-0.1l0.1-0.2l0.1-0.2l0-0.3l0-0.2l-0.1-0.2l-0.1-0.2l-0.1-0.1l-0.2-0.1l-0.2-0.1l-0.2,0l-0.3,0h-0.3H14h-0.3h-0.3v0.5
		v0.5v0.5V8.2L13.3,8.2z"/>
	<path d="M17.3,6.3l0-0.2l0-0.2l0.1-0.1l0.1-0.1l0.1-0.1l0.1,0l0.2,0l0.2,0h0.6h0.6h0.6h0.6l0.2,0l0.2,0l0.1,0l0.1,0.1l0.1,0.1
		L21.3,6l0,0.2l0,0.2v0.4v0.4v0.4V8l0,0.2l0,0.2l-0.1,0.1l-0.1,0.1l-0.1,0.1l-0.1,0l-0.2,0l-0.2,0h-0.6h-0.6h-0.6h-0.6l-0.2,0
		l-0.2,0l-0.1,0l-0.1-0.1l-0.1-0.1l-0.1-0.1l0-0.2l0-0.2V7.6V7.2V6.7V6.3L17.3,6.3z M18,8.1h0.6h0.6H20h0.6V7.6V7.2V6.7V6.2H20h-0.6
		h-0.6H18v0.5v0.5v0.5V8.1L18,8.1z"/>
	<path d="M22.3,8.8V8V7.2V6.4V5.6h0.1h0.1h0.1h0.1l0.7,0.5l0.7,0.5l0.7,0.5l0.7,0.5V7.2V6.6V6.1V5.6h0.2h0.2h0.2h0.2v0.8v0.8V8v0.8
		h-0.1H26h-0.1h-0.1L25,8.2l-0.7-0.5l-0.7-0.5L23,6.6v0.5v0.5v0.5v0.5h-0.2h-0.2h-0.2H22.3L22.3,8.8z"/>
	<path d="M26.8,8.8L27.3,8l0.5-0.8l0.5-0.8l0.5-0.8h0.2h0.2h0.2h0.2l0.5,0.8l0.5,0.8L30.9,8l0.5,0.8h-0.2h-0.2h-0.2h-0.2l-0.1-0.2
		l-0.1-0.2l-0.1-0.2l-0.1-0.2h-0.5H29h-0.5H28l-0.1,0.2l-0.1,0.2l-0.1,0.2l-0.1,0.2h-0.2h-0.2H27H26.8L26.8,8.8z M28.3,7.5h0.4H29
		h0.4h0.4l-0.2-0.3l-0.2-0.3l-0.2-0.3L29,6.2l-0.2,0.3l-0.2,0.3l-0.2,0.3L28.3,7.5L28.3,7.5z"/>
	<path d="M34.7,6.1h-0.5h-0.5h-0.5h-0.5v0.2v0.2v0.2v0.2H33h0.5h0.5h0.5l0.2,0l0.2,0l0.1,0L35.2,7l0.1,0.1l0.1,0.1l0,0.2l0,0.2v0.1
		v0.1v0.1V8l0,0.2l0,0.2l-0.1,0.1l-0.1,0.1l-0.1,0.1l-0.1,0l-0.2,0l-0.2,0h-0.5h-0.5H33h-0.5l-0.2,0l-0.2,0l-0.1,0l-0.1-0.1
		l-0.1-0.1l-0.1-0.1l0-0.2l0-0.2v0v0v0v0l0.2,0l0.2,0l0.2,0l0.2,0v0.1V8v0.1v0.1h0.6h0.6h0.6h0.6V8V7.8V7.6V7.4h-0.5h-0.5h-0.5h-0.5
		l-0.2,0l-0.2,0l-0.1,0L32,7.3l-0.1-0.1L31.9,7l0-0.2l0-0.2V6.6V6.5V6.4V6.3l0-0.2l0-0.2l0.1-0.1L32,5.7l0.1-0.1l0.1,0l0.2,0l0.2,0
		h0.5h0.5h0.5h0.5l0.2,0l0.2,0l0.1,0l0.1,0.1l0.1,0.1l0.1,0.1l0,0.1l0,0.2v0v0v0v0l-0.2,0l-0.2,0l-0.2,0l-0.2,0V6.4V6.3V6.1
		L34.7,6.1L34.7,6.1z"/>
	<path d="M35.7,8.8L36.2,8l0.5-0.8l0.5-0.8l0.5-0.8h0.2H38h0.2h0.2l0.5,0.8l0.5,0.8L39.8,8l0.5,0.8h-0.2h-0.2h-0.2h-0.2l-0.1-0.2
		l-0.1-0.2l-0.1-0.2L39,8.1h-0.5H38h-0.5h-0.5l-0.1,0.2l-0.1,0.2l-0.1,0.2l-0.1,0.2h-0.2h-0.2h-0.2H35.7L35.7,8.8z M37.2,7.5h0.4H38
		h0.4h0.4l-0.2-0.3l-0.2-0.3l-0.2-0.3L38,6.2l-0.2,0.3l-0.2,0.3l-0.2,0.3L37.2,7.5L37.2,7.5z"/>
	<path d="M40.7,8.8V8V7.2V6.4V5.6h0.2h0.2h0.2h0.2v0.6v0.6v0.6v0.6h0.6h0.6h0.6H44v0.1v0.1v0.1v0.1h-0.8h-0.8h-0.8H40.7L40.7,8.8z"
		/>
	<path d="M47.3,8.8v-1v-1v-1v-1h0.8h0.8h0.8h0.8l0.2,0l0.2,0L51.1,5l0.1,0.1l0.1,0.1l0.1,0.1l0,0.2l0,0.2v0.2v0.2v0.2v0.2l0,0.2
		l0,0.2L51.3,7l-0.1,0.1l-0.1,0.1L51,7.2l-0.2,0l-0.2,0h-0.1h-0.1h-0.1h-0.1l0.4,0.4L51,8l0.4,0.4l0.4,0.4h-0.3h-0.3h-0.3h-0.3
		l-0.4-0.4L49.8,8l-0.4-0.4L49,7.3h-0.2h-0.2h-0.2h-0.2v0.4V8v0.4v0.4h-0.2h-0.2h-0.2H47.3L47.3,8.8z M50.2,5.6h-0.5h-0.5h-0.5h-0.5
		v0.3v0.3v0.3v0.3h0.5h0.5h0.5h0.5l0.1,0l0.1,0l0.1,0l0.1,0l0,0l0-0.1l0-0.1l0-0.1V6.2V6.1V6V5.9l0-0.1l0-0.1l0-0.1l0,0l-0.1,0
		l-0.1,0l-0.1,0L50.2,5.6L50.2,5.6z"/>
	<path d="M52.4,6.3l0-0.2l0-0.2l0.1-0.1l0.1-0.1l0.1-0.1l0.1,0l0.2,0l0.2,0h0.6h0.6h0.6h0.6l0.2,0l0.2,0l0.1,0l0.1,0.1l0.1,0.1
		L56.5,6l0,0.2l0,0.2v0.4v0.4v0.4V8l0,0.2l0,0.2l-0.1,0.1l-0.1,0.1l-0.1,0.1l-0.1,0l-0.2,0l-0.2,0h-0.6h-0.6h-0.6h-0.6l-0.2,0
		l-0.2,0l-0.1,0l-0.1-0.1l-0.1-0.1l-0.1-0.1l0-0.2l0-0.2V7.6V7.2V6.7V6.3L52.4,6.3z M53.2,8.1h0.6h0.6h0.6h0.6V7.6V7.2V6.7V6.2h-0.6
		h-0.6h-0.6h-0.6v0.5v0.5v0.5V8.1L53.2,8.1z"/>
	<path d="M57.5,8.8V8V7.2V6.4V5.6h0.7h0.7h0.7h0.7l0.2,0l0.2,0l0.1,0l0.1,0.1L61,5.8L61,5.9l0,0.1l0,0.2v0.1v0.1v0.1v0.1l0,0.1
		l0,0.1l0,0.1l-0.1,0.1L60.9,7L60.8,7l-0.1,0l-0.1,0l0.1,0l0.1,0l0.1,0.1L61,7.3L61,7.4l0,0.1l0,0.1l0,0.1v0.1v0.1V8v0.1l0,0.1
		l0,0.1L61,8.5l-0.1,0.1l-0.1,0.1l-0.2,0l-0.2,0l-0.2,0h-0.7h-0.7h-0.7H57.5L57.5,8.8z M60,6.1h-0.4h-0.4h-0.4h-0.4v0.2v0.2v0.2v0.2
		h0.4h0.4h0.4H60l0.1,0l0.1,0l0.1,0l0,0l0,0l0,0l0,0l0-0.1V6.5V6.5V6.4V6.3l0-0.1l0,0l0,0l0,0l0,0l-0.1,0L60,6.1L60,6.1L60,6.1z
		 M60,7.4h-0.4h-0.4h-0.4h-0.4v0.2v0.2V8v0.2h0.4h0.4h0.4H60l0.1,0l0.1,0l0.1,0l0,0l0,0l0,0l0-0.1l0-0.1V7.8V7.8V7.7V7.7l0-0.1
		l0-0.1l0,0l0,0l0,0l-0.1,0l-0.1,0L60,7.4L60,7.4z"/>
	<path d="M62,6.3l0-0.2L62,6l0.1-0.1l0.1-0.1l0.1-0.1l0.1,0l0.2,0l0.2,0h0.6H64h0.6h0.6l0.2,0l0.2,0l0.1,0l0.1,0.1L66,5.8L66,6
		l0,0.2l0,0.2v0.4v0.4v0.4V8l0,0.2l0,0.2L66,8.5l-0.1,0.1l-0.1,0.1l-0.1,0l-0.2,0l-0.2,0h-0.6H64h-0.6h-0.6l-0.2,0l-0.2,0l-0.1,0
		l-0.1-0.1l-0.1-0.1L62,8.4l0-0.2L62,8V7.6V7.2V6.7V6.3L62,6.3z M62.7,8.1h0.6H64h0.6h0.6V7.6V7.2V6.7V6.2h-0.6H64h-0.6h-0.6v0.5
		v0.5v0.5V8.1L62.7,8.1z"/>
	<path d="M68.9,6.1v0.7v0.7v0.7v0.7h-0.2h-0.2h-0.2h-0.2V8.1V7.5V6.8V6.1h-0.4h-0.4H67h-0.4V6V5.9V5.7V5.6h1h1h1h1v0.1v0.1V6v0.1
		h-0.4h-0.4h-0.4H68.9L68.9,6.1z"/>
	<path d="M2.7,14.8v-1v-1v-1v-1h0.2h0.2h0.2h0.2l0.5,0.6l0.5,0.6l0.5,0.6l0.5,0.6l0.4-0.6l0.4-0.6l0.4-0.6L7,10.9h0.2h0.2h0.2h0.2v1
		v1v1v1H7.5H7.3H7.1H6.9v-0.6v-0.6V13v-0.6l0,0l0,0l0,0l0-0.1l0-0.1l0-0.1l0-0.1l0-0.1l0,0.1l0,0.1l0,0.1l0,0.1l0,0l0,0l0,0l0,0
		l-0.4,0.5L6,13.3l-0.4,0.5l-0.4,0.5h0h0h0h0l-0.4-0.5l-0.4-0.5L4,12.8l-0.4-0.5l0-0.1l0-0.1l0-0.1l0,0l0,0l0,0l0,0l0,0l0,0.1l0,0.1
		l0,0.1l0,0.1l0,0l0,0l0,0l0,0V13v0.6v0.6v0.6H3.2H3.1H2.9H2.7L2.7,14.8z"/>
	<path d="M8.9,12.3l0-0.2L9,12L9,11.8l0.1-0.1l0.1-0.1l0.1,0l0.2,0l0.2,0h0.6H11h0.6h0.6l0.2,0l0.2,0l0.1,0l0.1,0.1l0.1,0.1L13,12
		l0,0.2l0,0.2v0.4v0.4v0.4V14l0,0.2l0,0.2l-0.1,0.1l-0.1,0.1l-0.1,0.1l-0.1,0l-0.2,0l-0.2,0h-0.6H11h-0.6H9.7l-0.2,0l-0.2,0l-0.1,0
		l-0.1-0.1L9,14.5L9,14.4l0-0.2l0-0.2v-0.4v-0.4v-0.4V12.3L8.9,12.3z M9.7,14.1h0.6H11h0.6h0.6v-0.5v-0.5v-0.5v-0.5h-0.6H11h-0.6
		H9.7v0.5v0.5v0.5V14.1L9.7,14.1z"/>
	<path d="M14,14.8V14v-0.8v-0.8v-0.8h0.5H15h0.5h0.5l0.4,0l0.4,0.1l0.3,0.1l0.3,0.2l0.2,0.2l0.2,0.3l0.1,0.3l0,0.4l0,0.4l-0.1,0.3
		l-0.2,0.3l-0.2,0.2l-0.3,0.2l-0.4,0.1l-0.4,0.1l-0.5,0h-0.5h-0.5h-0.5H14L14,14.8z M14.8,14.2H15h0.2h0.2h0.2l0.4,0l0.3,0l0.3-0.1
		l0.2-0.1l0.1-0.1l0.1-0.2l0.1-0.2l0-0.3l0-0.2l-0.1-0.2l-0.1-0.2l-0.1-0.1l-0.2-0.1l-0.2-0.1l-0.2,0l-0.3,0h-0.3h-0.3h-0.3h-0.3
		v0.5v0.5v0.5V14.2L14.8,14.2z"/>
	<path d="M19.6,11.6v0.6v0.6v0.6v0.6h0.6h0.6h0.6h0.6v-0.6v-0.6v-0.6v-0.6H22h0.2h0.2h0.2v0.6v0.6v0.6V14l0,0.2l0,0.2l-0.1,0.1
		l-0.1,0.1l-0.1,0.1l-0.1,0l-0.2,0l-0.2,0h-0.5h-0.5h-0.5h-0.5l-0.2,0l-0.2,0l-0.1,0L19,14.6l-0.1-0.1l-0.1-0.1l0-0.2l0-0.2v-0.6
		v-0.6v-0.6v-0.6H19h0.2h0.2H19.6L19.6,11.6z"/>
	<path d="M23.6,14.8V14v-0.8v-0.8v-0.8h0.2H24h0.2h0.2v0.6v0.6v0.6v0.6H25h0.6h0.6h0.6v0.1v0.1v0.1v0.1H26h-0.8h-0.8H23.6L23.6,14.8
		z"/>
	<path d="M27.4,14.8V14v-0.8v-0.8v-0.8h0.9h0.9h0.9h0.9v0.1v0.1V12v0.1h-0.7h-0.7h-0.7h-0.7v0.2v0.2v0.2v0.2h0.4h0.4h0.4h0.4V13v0.1
		v0.1v0.1h-0.4h-0.4h-0.4h-0.4v0.2v0.2V14v0.2h0.7h0.7h0.7h0.7v0.1v0.1v0.1v0.1h-0.9h-0.9h-0.9H27.4L27.4,14.8z"/>
	<path d="M34.4,14.8v-1v-1v-1v-1h0.8H36h0.8h0.8l0.2,0l0.2,0l0.2,0.1l0.1,0.1l0.1,0.1l0.1,0.1l0,0.2l0,0.2v0.1v0.1V12v0.1l0,0.1
		l0,0.1l-0.1,0.1l-0.1,0.1l-0.1,0.1l-0.1,0.1l-0.1,0l-0.2,0l0.2,0l0.1,0.1l0.1,0.1l0.1,0.1l0.1,0.1l0.1,0.1l0,0.1l0,0.1v0.1v0.1v0.1
		V14l0,0.2l-0.1,0.2l-0.1,0.1l-0.1,0.1l-0.2,0.1l-0.2,0.1l-0.2,0l-0.3,0h-0.8h-0.8h-0.8H34.4L34.4,14.8z M37.3,11.5h-0.5h-0.5h-0.5
		h-0.5v0.2V12v0.2v0.2h0.5h0.5h0.5h0.5l0.1,0l0.1,0l0.1,0l0.1,0l0,0l0,0l0-0.1l0-0.1v-0.1V12v-0.1v-0.1l0-0.1l0-0.1l0,0l0,0l-0.1,0
		l-0.1,0l-0.1,0L37.3,11.5L37.3,11.5z M37.3,13.1h-0.5h-0.5h-0.5h-0.5v0.2v0.2v0.2v0.2h0.5h0.5h0.5h0.5l0.1,0l0.1,0l0.1,0l0.1,0l0,0
		l0-0.1l0-0.1l0-0.1v-0.1v-0.1v-0.1v-0.1l0-0.1l0-0.1l0-0.1l0,0l-0.1,0l-0.1,0l-0.1,0L37.3,13.1L37.3,13.1z"/>
	<path d="M39.7,14.8V14v-0.8v-0.8v-0.8h0.7h0.7h0.7h0.7l0.2,0l0.2,0l0.1,0l0.1,0.1l0.1,0.1l0.1,0.1l0,0.1l0,0.2v0.2v0.2v0.2v0.2
		l0,0.1l0,0.1l-0.1,0.1l-0.1,0.1L43,13.5l-0.1,0l-0.2,0l-0.2,0h-0.1h-0.1h-0.1h-0.1l0.4,0.3l0.4,0.3l0.4,0.3l0.4,0.3h-0.3H43h-0.3
		h-0.3l-0.3-0.3l-0.3-0.3l-0.3-0.3l-0.3-0.3H41h-0.2h-0.2h-0.2v0.3v0.3v0.3v0.3h-0.2H40h-0.2H39.7L39.7,14.8z M42.2,12.1h-0.4h-0.4
		h-0.4h-0.4v0.2v0.2v0.2V13h0.4h0.4h0.4h0.4l0.1,0l0.1,0l0.1,0l0,0l0,0l0,0l0-0.1l0-0.1v-0.1v-0.1v-0.1v-0.1l0-0.1l0-0.1l0,0l0,0
		l0,0l-0.1,0L42.2,12.1L42.2,12.1L42.2,12.1z"/>
	<path d="M44.2,14.8V14v-0.8v-0.8v-0.8H45h0.9h0.9h0.9v0.1v0.1V12v0.1h-0.7h-0.7h-0.7h-0.7v0.2v0.2v0.2v0.2h0.4h0.4h0.4h0.4V13v0.1
		v0.1v0.1h-0.4h-0.4h-0.4h-0.4v0.2v0.2V14v0.2h0.7h0.7h0.7h0.7v0.1v0.1v0.1v0.1h-0.9h-0.9H45H44.2L44.2,14.8z"/>
	<path d="M47.9,14.8l0.5-0.8l0.5-0.8l0.5-0.8l0.5-0.8h0.2h0.2h0.2h0.2l0.5,0.8l0.5,0.8l0.5,0.8l0.5,0.8h-0.2H52h-0.2h-0.2l-0.1-0.2
		l-0.1-0.2l-0.1-0.2l-0.1-0.2h-0.5h-0.5h-0.5H49l-0.1,0.2l-0.1,0.2l-0.1,0.2l-0.1,0.2h-0.2h-0.2H48H47.9L47.9,14.8z M49.4,13.5h0.4
		h0.4h0.4h0.4l-0.2-0.3l-0.2-0.3l-0.2-0.3l-0.2-0.3l-0.2,0.3l-0.2,0.3l-0.2,0.3L49.4,13.5L49.4,13.5z"/>
	<path d="M52.8,14.8V14v-0.8v-0.8v-0.8H53h0.2h0.2h0.2v0.3v0.3v0.3v0.3l0.5-0.3l0.5-0.3l0.5-0.3l0.5-0.3h0.3H56h0.3h0.3L56,11.9
		l-0.5,0.4l-0.5,0.4L54.4,13l0.6,0.4l0.6,0.4l0.6,0.4l0.6,0.4h-0.3h-0.3h-0.3h-0.3l-0.5-0.4L54.6,14l-0.5-0.4l-0.5-0.4v0.4V14v0.4
		v0.4h-0.2h-0.2H53H52.8L52.8,14.8z"/>
	<path d="M57,12.3l0-0.2l0-0.2l0.1-0.1l0.1-0.1l0.1-0.1l0.1,0l0.2,0l0.2,0h0.6h0.6h0.6h0.6l0.2,0l0.2,0l0.1,0l0.1,0.1l0.1,0.1
		l0.1,0.1l0,0.2l0,0.2v0.4v0.4v0.4V14l0,0.2l0,0.2L61,14.5l-0.1,0.1l-0.1,0.1l-0.1,0l-0.2,0l-0.2,0h-0.6h-0.6h-0.6h-0.6l-0.2,0
		l-0.2,0l-0.1,0l-0.1-0.1l-0.1-0.1L57,14.4l0-0.2l0-0.2v-0.4v-0.4v-0.4V12.3L57,12.3z M57.8,14.1h0.6h0.6h0.6h0.6v-0.5v-0.5v-0.5
		v-0.5h-0.6h-0.6h-0.6h-0.6v0.5v0.5v0.5V14.1L57.8,14.1z"/>
	<path d="M62.8,11.6v0.6v0.6v0.6v0.6h0.6h0.6h0.6H65v-0.6v-0.6v-0.6v-0.6h0.2h0.2h0.2h0.2v0.6v0.6v0.6V14l0,0.2l0,0.2l-0.1,0.1
		l-0.1,0.1l-0.1,0.1l-0.1,0l-0.2,0l-0.2,0h-0.5h-0.5h-0.5h-0.5l-0.2,0l-0.2,0l-0.1,0l-0.1-0.1l-0.1-0.1l-0.1-0.1l0-0.2l0-0.2v-0.6
		v-0.6v-0.6v-0.6h0.2h0.2h0.2H62.8L62.8,11.6z"/>
	<path d="M68.8,12.1v0.7v0.7v0.7v0.7h-0.2h-0.2h-0.2H68v-0.7v-0.7v-0.7v-0.7h-0.4h-0.4h-0.4h-0.4V12v-0.1v-0.1v-0.1h1h1h1h1v0.1v0.1
		V12v0.1h-0.4h-0.4h-0.4H68.8L68.8,12.1z"/>
	<path d="M12.7,22.8v-0.6v-0.6v-0.6v-0.6h0.5h0.5h0.5h0.5l0.1,0l0.1,0l0.1,0l0.1,0.1l0.1,0.1l0,0.1l0,0.1l0,0.1v0.1V21v0.1v0.1
		l0,0.1l0,0.1l0,0.1l-0.1,0.1l-0.1,0.1l-0.1,0l-0.1,0l-0.1,0h-0.1h-0.1h-0.1h-0.1l0.3,0.3l0.3,0.3l0.3,0.3l0.3,0.3h-0.2h-0.2h-0.2
		h-0.2l-0.3-0.3l-0.3-0.3L14.1,22l-0.3-0.3h-0.2h-0.2h-0.2h-0.2V22v0.3v0.3v0.3H13h-0.1h-0.1H12.7L12.7,22.8z M14.6,20.5h-0.4h-0.4
		h-0.4h-0.4v0.2V21v0.2v0.2h0.4h0.4h0.4h0.4l0.1,0l0.1,0l0,0l0,0l0,0l0,0l0-0.1l0-0.1v-0.1V21v-0.1v-0.1l0-0.1l0-0.1l0,0l0,0l0,0
		l0,0L14.6,20.5L14.6,20.5L14.6,20.5z"/>
	<path d="M15.9,22.8v-0.5v-0.5v-0.5v-0.5h0.5h0.5h0.5H18v0.1v0.1v0.1v0.1h-0.4h-0.4h-0.4h-0.4v0.1v0.1v0.1v0.1h0.3h0.3H17h0.3v0.1
		v0.1v0.1v0.1H17h-0.3h-0.3h-0.3V22v0.2v0.2v0.2h0.4h0.4h0.4H18v0.1v0.1v0.1v0.1h-0.5h-0.5h-0.5H15.9L15.9,22.8z"/>
	<path d="M19.3,22.8L19,22.2l-0.3-0.5l-0.3-0.5L18,20.6h0.1h0.1h0.1h0.1l0.2,0.4l0.2,0.4l0.2,0.4l0.2,0.4l0.2-0.4l0.2-0.4l0.2-0.4
		l0.2-0.4h0.1h0.1h0.1h0.1l-0.3,0.5l-0.3,0.5l-0.3,0.5l-0.3,0.5h-0.1h-0.1H19.3L19.3,22.8L19.3,22.8z"/>
	<path d="M23.6,22.8v-0.5v-0.5v-0.5v-0.5h-0.1h-0.1h-0.1H23v-0.1v-0.1v-0.1v-0.1l0.2,0l0.2,0l0.2,0l0.2,0v0.6v0.6v0.6v0.6h-0.1h-0.1
		H23.6L23.6,22.8L23.6,22.8z"/>
	<path d="M26.2,22.2L26.2,22.2L26.2,22.2l0.1,0l0,0l0,0l0,0l0,0l0,0v0.1v0.1v0.1v0.1l0,0l0,0l0,0l0,0l0,0l0,0l0,0l0,0h-0.1H26H26
		h-0.1l0,0l0,0l0,0l0,0l0,0l0,0l0,0l0,0v-0.1v-0.1v-0.1v-0.1l0,0l0,0l0,0l0,0l0,0l0,0l0,0l0,0H26h0.1H26.2L26.2,22.2L26.2,22.2z"/>
	<path d="M27.1,20.8l0-0.2l0-0.1l0-0.1l0.1-0.1l0.1-0.1l0.1,0l0.1,0l0.1,0H28h0.4h0.4h0.4l0.1,0l0.1,0l0.1,0l0.1,0.1l0.1,0.1l0,0.1
		l0,0.1l0,0.2v0.3v0.3v0.3v0.3l0,0.2l0,0.1l0,0.1l-0.1,0.1l-0.1,0.1l-0.1,0l-0.1,0l-0.1,0h-0.4h-0.4H28h-0.4l-0.1,0l-0.1,0l-0.1,0
		l-0.1-0.1l-0.1-0.1l0-0.1l0-0.1l0-0.2v-0.3v-0.3v-0.3V20.8L27.1,20.8z M27.5,22.4H28h0.5h0.5h0.5v-0.5v-0.5V21v-0.5h-0.5h-0.5H28
		h-0.5V21v0.5v0.5V22.4L27.5,22.4z"/>
	<path d="M31.6,21.6L31.6,21.6v-0.2v-0.1v-0.1h0.3h0.3h0.3h0.3v0.1v0.1v0.1v0.1h-0.3h-0.3h-0.3H31.6L31.6,21.6z"/>
	<path d="M35,22.8l-0.2,0l-0.1,0l-0.1,0l-0.1-0.1l-0.1-0.1l0-0.1l0-0.1l0-0.2V22v-0.1v-0.1v-0.1l0.1,0l0.1,0l0.1,0l0.1,0v0.2V22v0.2
		v0.2h0.3h0.3h0.3h0.3v-0.6v-0.6v-0.6v-0.6h0.1h0.1h0.1h0.1v0.5v0.5v0.5v0.5l0,0.2l0,0.1l0,0.1l-0.1,0.1l-0.1,0.1l-0.1,0l-0.1,0
		l-0.2,0h-0.3h-0.3h-0.3H35L35,22.8z"/>
	<path d="M37.8,20.6v0.4v0.4V22v0.4h0.4h0.4h0.4h0.4V22v-0.4v-0.4v-0.4h0.1h0.1h0.1h0.1V21v0.4v0.4v0.4l0,0.1l0,0.1l0,0.1l0,0.1
		l-0.1,0l-0.1,0l-0.1,0l-0.1,0h-0.3h-0.3h-0.3h-0.3l-0.1,0l-0.1,0l-0.1,0l-0.1,0l0-0.1l0-0.1l0-0.1l0-0.1v-0.4v-0.4V21v-0.4h0.1h0.1
		h0.1H37.8L37.8,20.6z"/>
	<path d="M40.6,21.1L40.6,21.1L40.6,21.1l0,0.1l0,0l0,0l0,0l0,0l0,0v0.3v0.3v0.3v0.3h-0.1h-0.1h-0.1h-0.1v-0.5v-0.5v-0.5v-0.5h0.1
		h0.1h0.1h0.1L41,21l0.4,0.3l0.4,0.3l0.4,0.3l0,0l0,0l0,0l0,0l0,0l0,0l0,0l0,0l0,0l0,0l0,0l0,0l0,0l0-0.1l0-0.1l0-0.1v-0.3v-0.3V21
		v-0.3h0.1h0.1h0.1h0.1v0.5v0.5v0.5v0.5h-0.1h-0.1h-0.1h-0.1L42,22.4l-0.4-0.4l-0.4-0.4l-0.4-0.4l0,0l0,0l0,0l0,0l0,0L40.6,21.1
		L40.6,21.1L40.6,21.1L40.6,21.1z"/>
	<path d="M43.2,22.8v-0.5v-0.5v-0.5v-0.5h0.5h0.5h0.5h0.5v0.1v0.1v0.1v0.1h-0.4h-0.4h-0.4h-0.4v0.1v0.1v0.1v0.1h0.3h0.3h0.3h0.3v0.1
		v0.1v0.1v0.1h-0.3h-0.3h-0.3h-0.3V22v0.2v0.2v0.2h0.4h0.4H45h0.4v0.1v0.1v0.1v0.1h-0.5h-0.5h-0.5H43.2L43.2,22.8z"/>
	<path d="M47.4,20.7l0-0.1l0-0.1l0-0.1l0-0.1l0.1,0l0.1,0l0.1,0l0.2,0h0.3h0.3h0.3h0.3l0.1,0l0.1,0l0.1,0l0.1,0l0,0.1l0,0.1l0,0.1
		l0,0.1v0v0v0v0l0,0.1l0,0.1l0,0.1l0,0.1l0,0.1l-0.1,0.1l-0.1,0.1l-0.1,0.1L49,21.6l-0.4,0.3l-0.4,0.3l-0.4,0.3h0.4h0.4H49h0.4v-0.1
		v-0.1V22v-0.1l0.1,0l0.1,0l0.1,0l0.1,0v0.1v0.1v0.1v0.1l0,0.1l0,0.1l0,0.1l-0.1,0.1l-0.1,0l-0.1,0l-0.1,0l-0.2,0h-0.5h-0.5h-0.5
		h-0.5v0v0v0v0l0-0.1l0-0.1l0-0.1l0-0.1l0,0l0.1,0l0.1,0l0.1-0.1l0.4-0.3l0.4-0.3l0.4-0.3l0.4-0.3v-0.1v-0.1v-0.1v-0.1H49h-0.4h-0.4
		h-0.4v0.2v0.2V21v0.2l-0.1,0l-0.1,0l-0.1,0l-0.1,0v-0.1v-0.1V20.7L47.4,20.7L47.4,20.7z"/>
	<path d="M50.4,20.8l0-0.2l0-0.1l0-0.1l0.1-0.1l0.1-0.1l0.1,0l0.1,0l0.1,0h0.4h0.4h0.4h0.4l0.1,0l0.1,0l0.1,0l0.1,0.1l0.1,0.1l0,0.1
		l0,0.1l0,0.2v0.3v0.3v0.3v0.3l0,0.2l0,0.1l0,0.1l-0.1,0.1L53,22.7l-0.1,0l-0.1,0l-0.1,0h-0.4h-0.4h-0.4H51l-0.1,0l-0.1,0l-0.1,0
		l-0.1-0.1l-0.1-0.1l0-0.1l0-0.1l0-0.2v-0.3v-0.3v-0.3V20.8L50.4,20.8z M50.9,22.4h0.5h0.5h0.5h0.5v-0.5v-0.5V21v-0.5h-0.5h-0.5
		h-0.5h-0.5V21v0.5v0.5V22.4L50.9,22.4z"/>
	<path d="M55,22.8v-0.5v-0.5v-0.5v-0.5h-0.1h-0.1h-0.1h-0.1v-0.1v-0.1v-0.1v-0.1l0.2,0l0.2,0l0.2,0l0.2,0v0.6v0.6v0.6v0.6h-0.1h-0.1
		H55L55,22.8L55,22.8z"/>
	<path d="M57.6,22.8l-0.2,0l-0.1,0l-0.1,0l-0.1-0.1l-0.1-0.1l0-0.1l0-0.1l0-0.1v-0.1v-0.1V22v-0.1l0-0.1l0-0.1l0-0.1l0-0.1l0.1-0.1
		l0.1,0l0.1,0l0.1,0l-0.1,0l-0.1,0l-0.1,0l-0.1-0.1l0-0.1l0-0.1l0-0.1l0-0.1v-0.1v-0.1v-0.1v-0.1l0-0.1l0-0.1l0-0.1l0-0.1l0.1,0
		l0.1,0l0.1,0l0.2,0H58h0.4h0.4h0.4l0.2,0l0.1,0l0.1,0l0.1,0l0,0.1l0,0.1l0,0.1l0,0.1v0.1v0.1v0.1v0.1l0,0.1l0,0.1l0,0.1l0,0.1
		l-0.1,0.1l-0.1,0l-0.1,0l-0.1,0l0.1,0l0.1,0l0.1,0l0.1,0.1l0,0.1l0,0.1l0,0.1l0,0.1V22v0.1v0.1v0.1l0,0.1l0,0.1l0,0.1l-0.1,0.1
		l-0.1,0.1l-0.1,0l-0.1,0l-0.2,0h-0.4h-0.4H58H57.6L57.6,22.8z M57.5,21.9L57.5,21.9V22v0.1v0.1l0,0.1l0,0.1l0,0l0,0l0,0l0,0l0.1,0
		l0.1,0h0.3h0.3h0.3h0.3l0.1,0l0.1,0l0,0l0,0l0,0l0,0l0-0.1l0-0.1v-0.1V22v-0.1v-0.1l0-0.1l0-0.1l0,0l0,0l0,0l0,0l-0.1,0l-0.1,0
		h-0.3h-0.3h-0.3h-0.3l-0.1,0l-0.1,0l0,0l0,0l0,0l0,0L57.5,21.9L57.5,21.9L57.5,21.9z M57.5,20.8L57.5,20.8L57.5,20.8v0.1v0l0,0.1
		l0,0.1l0,0l0,0l0,0l0,0l0.1,0l0.1,0h0.3h0.3h0.3h0.3l0.1,0l0.1,0l0,0l0,0l0,0l0,0l0-0.1l0-0.1v0v0v0v0l0-0.1l0-0.1l0,0l0,0l0,0l0,0
		l-0.1,0l-0.1,0h-0.3h-0.3h-0.3h-0.3l-0.1,0l-0.1,0l0,0l0,0l0,0l0,0L57.5,20.8L57.5,20.8L57.5,20.8z"/>
	<path d="M20.7,29.5v0.6v0.6v0.6v0.6h-0.1h-0.1h-0.1h-0.1v-0.6v-0.6v-0.6v-0.6H20h-0.3h-0.3h-0.3v-0.1v-0.1v-0.1v-0.1h0.7h0.7h0.7
		h0.7v0.1v0.1v0.1v0.1h-0.3h-0.3H21H20.7L20.7,29.5z"/>
	<path d="M22.1,31.8v-0.5v-0.5v-0.5v-0.5h0.4H23h0.4h0.4l0.1,0l0.1,0l0.1,0l0.1,0l0,0.1l0,0.1l0,0.1l0,0.1v0.1v0.1v0.1v0.1l0,0.1
		l0,0.1l0,0.1l0,0.1l-0.1,0l-0.1,0l-0.1,0l-0.1,0h-0.1h-0.1h-0.1h-0.1l0.2,0.2l0.2,0.2l0.2,0.2l0.2,0.2h-0.1h-0.1h-0.1h-0.1
		l-0.2-0.2l-0.2-0.2l-0.2-0.2l-0.2-0.2H23h-0.1h-0.1h-0.1v0.2v0.2v0.2v0.2h-0.1h-0.1h-0.1H22.1L22.1,31.8z M23.6,29.9h-0.3h-0.3
		h-0.3h-0.3v0.2v0.2v0.2v0.2h0.3h0.3h0.3h0.3l0.1,0l0.1,0l0,0l0,0l0,0l0,0l0,0l0-0.1v-0.1v-0.1v-0.1v-0.1l0-0.1l0,0l0,0l0,0l0,0l0,0
		L23.6,29.9L23.6,29.9L23.6,29.9z"/>
	<path d="M24.9,31.8v-0.5v-0.5v-0.5v-0.5h0.5H26h0.5h0.5v0.1v0.1v0.1v0.1h-0.4h-0.4h-0.4h-0.4v0.1v0.1v0.1v0.1h0.3h0.3h0.3h0.3v0.1
		v0.1v0.1v0.1h-0.3h-0.3h-0.3h-0.3V31v0.2v0.2v0.2h0.4h0.4h0.4h0.4v0.1v0.1v0.1v0.1h-0.5H26h-0.5H24.9L24.9,31.8z"/>
	<path d="M28.4,31.8l-0.3-0.5l-0.3-0.5l-0.3-0.5l-0.3-0.5h0.1h0.1h0.1h0.1l0.2,0.4l0.2,0.4l0.2,0.4l0.2,0.4l0.2-0.4l0.2-0.4l0.2-0.4
		l0.2-0.4h0.1h0.1h0.1h0.1l-0.3,0.5l-0.3,0.5L29,31.2l-0.3,0.5h-0.1h-0.1H28.4L28.4,31.8L28.4,31.8z"/>
	<path d="M30.2,30.1l0-0.1l0-0.1l0-0.1l0-0.1l0.1,0l0.1,0l0.1,0l0.1,0h0.4h0.4h0.4h0.4l0.1,0l0.1,0l0.1,0l0.1,0l0,0.1l0,0.1l0,0.1
		l0,0.1v0.3v0.3V31v0.3l0,0.1l0,0.1l0,0.1l0,0.1l-0.1,0l-0.1,0l-0.1,0l-0.1,0h-0.4h-0.4h-0.4h-0.4l-0.1,0l-0.1,0l-0.1,0l-0.1,0
		l0-0.1l0-0.1l0-0.1l0-0.1V31v-0.3v-0.3V30.1L30.2,30.1z M30.6,31.4H31h0.4h0.4h0.4v-0.4v-0.4v-0.4v-0.4h-0.4h-0.4H31h-0.4v0.4v0.4
		v0.4V31.4L30.6,31.4z"/>
	<path d="M33.4,31.8v-0.5v-0.5v-0.5v-0.5h0.4h0.4h0.4h0.4l0.1,0l0.1,0l0.1,0l0.1,0l0,0.1l0,0.1l0,0.1l0,0.1v0.1v0.1v0.1v0.1l0,0.1
		l0,0.1l0,0.1l0,0.1l-0.1,0l-0.1,0l-0.1,0l-0.1,0h-0.1H35h-0.1h-0.1l0.2,0.2l0.2,0.2l0.2,0.2l0.2,0.2h-0.1h-0.1h-0.1h-0.1l-0.2-0.2
		l-0.2-0.2l-0.2-0.2l-0.2-0.2h-0.1h-0.1H34h-0.1v0.2v0.2v0.2v0.2h-0.1h-0.1h-0.1H33.4L33.4,31.8z M35,29.9h-0.3h-0.3h-0.3h-0.3v0.2
		v0.2v0.2v0.2h0.3h0.3h0.3H35l0.1,0l0.1,0l0,0l0,0l0,0l0,0l0,0l0-0.1v-0.1v-0.1v-0.1v-0.1l0-0.1l0,0l0,0l0,0l0,0l0,0L35,29.9
		L35,29.9L35,29.9z"/>
	<path d="M38.1,31.8v-0.6v-0.6v-0.6v-0.6h0.5h0.5h0.5h0.5l0.1,0l0.1,0l0.1,0l0.1,0.1l0.1,0.1l0,0.1l0,0.1l0,0.1v0.1v0.1v0.1V30
		l0,0.1l0,0.1l0,0.1l0,0.1l-0.1,0l-0.1,0l-0.1,0l-0.1,0l0.1,0l0.1,0l0.1,0l0.1,0.1l0,0.1l0,0.1l0,0.1l0,0.1V31v0.1v0.1v0.1l0,0.1
		l0,0.1l-0.1,0.1l-0.1,0.1l-0.1,0.1l-0.1,0l-0.1,0l-0.2,0h-0.5H39h-0.5H38.1L38.1,31.8z M40.2,30L40.2,30v-0.1v-0.1v-0.1l0-0.1l0,0
		l0,0l0,0l0,0l0,0l-0.1,0l-0.1,0h-0.4h-0.4h-0.4h-0.4v0.2v0.2v0.2v0.2h0.4h0.4h0.4H40l0.1,0l0.1,0l0,0l0,0l0,0l0,0L40.2,30L40.2,30
		L40.2,30z M40.3,31.1L40.3,31.1V31v-0.1v-0.1l0-0.1l0-0.1l0-0.1l0,0l0,0l0,0l-0.1,0l-0.1,0h-0.4h-0.4h-0.4h-0.4v0.2V31v0.2v0.2h0.4
		h0.4h0.4H40l0.1,0l0.1,0l0,0l0,0l0,0l0-0.1L40.3,31.1L40.3,31.1L40.3,31.1z"/>
	<path d="M41.5,31.8v-0.5v-0.5v-0.5v-0.5h0.4h0.4h0.4h0.4l0.1,0l0.1,0l0.1,0l0.1,0l0,0.1l0,0.1l0,0.1l0,0.1v0.1v0.1v0.1v0.1l0,0.1
		l0,0.1l0,0.1l0,0.1l-0.1,0l-0.1,0l-0.1,0l-0.1,0h-0.1H43H43h-0.1l0.2,0.2l0.2,0.2l0.2,0.2l0.2,0.2h-0.1h-0.1h-0.1h-0.1l-0.2-0.2
		l-0.2-0.2l-0.2-0.2l-0.2-0.2h-0.1h-0.1H42h-0.1v0.2v0.2v0.2v0.2h-0.1h-0.1h-0.1H41.5L41.5,31.8z M43,29.9h-0.3h-0.3h-0.3h-0.3v0.2
		v0.2v0.2v0.2h0.3h0.3h0.3H43l0.1,0l0.1,0l0,0l0,0l0,0l0,0l0,0l0-0.1v-0.1v-0.1v-0.1v-0.1l0-0.1l0,0l0,0l0,0l0,0l0,0L43,29.9
		L43,29.9L43,29.9z"/>
	<path d="M44.7,29.6v0.4v0.4V31v0.4h0.4h0.4h0.4h0.4V31v-0.4v-0.4v-0.4h0.1h0.1h0.1h0.1V30v0.4v0.4v0.4l0,0.1l0,0.1l0,0.1l0,0.1
		l-0.1,0l-0.1,0l-0.1,0l-0.1,0h-0.3h-0.3h-0.3h-0.3l-0.1,0l-0.1,0l-0.1,0l-0.1,0l0-0.1l0-0.1l0-0.1l0-0.1v-0.4v-0.4V30v-0.4h0.1h0.1
		h0.1H44.7L44.7,29.6z"/>
	<path d="M47.7,30.1L47.7,30.1L47.7,30.1l0,0.1l0,0l0,0l0,0l0,0l0,0v0.3v0.3v0.3v0.3h-0.1h-0.1h-0.1h-0.1v-0.5v-0.5v-0.5v-0.5h0.1
		h0.1h0.1h0.1l0.4,0.3l0.4,0.3l0.4,0.3l0.4,0.3l0,0l0,0l0,0l0,0l0,0l0,0l0,0l0,0l0,0l0,0l0,0l0,0l0,0l0-0.1l0-0.1l0-0.1v-0.3v-0.3
		V30v-0.3h0.1h0.1h0.1h0.1v0.5v0.5v0.5v0.5h-0.1h-0.1h-0.1h-0.1l-0.4-0.4l-0.4-0.4l-0.4-0.4l-0.4-0.4l0,0l0,0l0,0l0,0l0,0L47.7,30.1
		L47.7,30.1L47.7,30.1L47.7,30.1z"/>
	<path d="M52.4,29.9H52h-0.4h-0.4h-0.4v0.1v0.1v0.1v0.1h0.3h0.3h0.3h0.3l0.1,0l0.1,0l0.1,0l0.1,0l0,0.1l0,0.1l0,0.1l0,0.1v0.1v0.1
		v0.1v0.1l0,0.1l0,0.1l0,0.1l0,0.1l-0.1,0l-0.1,0l-0.1,0l-0.1,0H52h-0.3h-0.3H51l-0.1,0l-0.1,0l-0.1,0l-0.1,0l0-0.1l0-0.1l0-0.1
		l0-0.1v0v0v0v0l0.1,0l0.1,0l0.1,0l0.1,0v0.1v0.1v0.1v0.1h0.4h0.4H52h0.4v-0.1v-0.1V31v-0.1h-0.3h-0.3h-0.3h-0.3l-0.1,0l-0.1,0
		l-0.1,0l-0.1,0l0-0.1l0-0.1l0-0.1l0-0.1v-0.1v-0.1v-0.1v-0.1l0-0.1l0-0.1l0-0.1l0-0.1l0.1,0l0.1,0l0.1,0l0.1,0h0.3h0.3H52h0.3
		l0.1,0l0.1,0l0.1,0l0.1,0l0,0.1l0,0.1l0,0.1l0,0.1v0v0v0v0l-0.1,0l-0.1,0l-0.1,0l-0.1,0v-0.1v-0.1V29.9L52.4,29.9L52.4,29.9z"/>
</g>
<rect x="35.1" y="9.7" class="st0" width="1.6" height="6.4"/>
</svg>
